<svg width="12" height="12" viewBox="0 0 12 12" fill="none" xmlns="http://www.w3.org/2000/svg">
<path d="M5.985 4.74009e-10C4.49383 -1.8686e-05 3.05581 0.552461 1.94992 1.55026C0.844028 2.54805 0.149117 3.92002 0 5.4L6.33748 5.4L4.95823 4.0242C4.84866 3.91104 4.78803 3.75948 4.7894 3.60216C4.79077 3.44484 4.85403 3.29435 4.96555 3.18311C5.07708 3.07186 5.22794 3.00876 5.38566 3.0074C5.54337 3.00603 5.69531 3.06651 5.80876 3.1758L8.21479 5.5758C8.32755 5.68832 8.3909 5.8409 8.3909 6C8.3909 6.1591 8.32755 6.31168 8.21479 6.4242L5.80876 8.8242C5.69531 8.9335 5.54337 8.99397 5.38566 8.99261C5.22794 8.99124 5.07708 8.92814 4.96555 8.81689C4.85403 8.70565 4.79077 8.55516 4.7894 8.39784C4.78803 8.24052 4.84866 8.08896 4.95823 7.9758L6.33748 6.6L0 6.6C0.116402 7.75528 0.566354 8.85206 1.29529 9.75731C2.02422 10.6626 3.00081 11.3374 4.10662 11.7C5.21244 12.0625 6.39996 12.0973 7.52517 11.8C8.65039 11.5026 9.66494 10.886 10.4458 10.025C11.2267 9.16386 11.7403 8.09526 11.9243 6.94877C12.1084 5.80227 11.955 4.62713 11.4828 3.56587C11.0105 2.50461 10.2398 1.60282 9.26389 0.969873C8.28803 0.336926 7.14902 1.45873e-05 5.985 4.74009e-10Z" fill="white"/>
</svg>
