<svg width="24" height="25" viewBox="0 0 24 25" fill="none" xmlns="http://www.w3.org/2000/svg">
<path d="M0.685318 8.5H23.3144C21.6677 3.8424 17.2296 0.504 12.0088 0.5H11.9907C6.77012 0.504 2.33198 3.8424 0.685318 8.5Z" fill="#006F2E"/>
<path d="M23.3144 16.5H0.685318C2.33305 21.1603 6.77545 24.5 12 24.5C17.2245 24.5 21.6667 21.1603 23.3144 16.5Z" fill="black"/>
<path d="M23.3144 16.5C23.7568 15.2485 24 13.9029 24 12.5C24 11.0971 23.7571 9.75147 23.3144 8.5H0.685333C0.242933 9.75147 0 11.0971 0 12.5C0 13.9029 0.2432 15.2485 0.6856 16.5H23.3144Z" fill="#F3F4F5"/>
<path d="M8 23.8143V1.18555C3.33973 2.83328 0 7.27541 0 12.4999C0 17.7245 3.33973 22.1666 8 23.8143Z" fill="#F70000"/>
</svg>
