<svg width="460" height="220" viewBox="0 0 460 220" fill="none" xmlns="http://www.w3.org/2000/svg">
<line x1="0.4" y1="1.74846e-08" x2="0.39999" y2="240" stroke="white" stroke-opacity="0.2" stroke-width="0.8"/>
<line x1="50.4" y1="1.74846e-08" x2="50.4" y2="240" stroke="white" stroke-opacity="0.2" stroke-width="0.8"/>
<line x1="100.4" y1="1.74846e-08" x2="100.4" y2="240" stroke="white" stroke-opacity="0.2" stroke-width="0.8"/>
<line x1="150.4" y1="1.74846e-08" x2="150.4" y2="240" stroke="white" stroke-opacity="0.2" stroke-width="0.8"/>
<line x1="200.4" y1="1.74846e-08" x2="200.4" y2="240" stroke="white" stroke-opacity="0.2" stroke-width="0.8"/>
<line x1="250.4" y1="1.74846e-08" x2="250.4" y2="240" stroke="white" stroke-opacity="0.2" stroke-width="0.8"/>
<line x1="300.4" y1="1.74846e-08" x2="300.4" y2="240" stroke="white" stroke-opacity="0.2" stroke-width="0.8"/>
<line x1="350.4" y1="1.74846e-08" x2="350.4" y2="240" stroke="white" stroke-opacity="0.2" stroke-width="0.8"/>
<line x1="400.4" y1="1.74846e-08" x2="400.4" y2="240" stroke="white" stroke-opacity="0.2" stroke-width="0.8"/>
<line x1="450.4" y1="1.74846e-08" x2="450.4" y2="240" stroke="white" stroke-opacity="0.2" stroke-width="0.8"/>
<line x1="-20" y1="219.6" x2="480" y2="219.6" stroke="white" stroke-opacity="0.2" stroke-width="0.8"/>
<line x1="-20" y1="169.6" x2="480" y2="169.6" stroke="white" stroke-opacity="0.2" stroke-width="0.8"/>
<line x1="-20" y1="119.6" x2="480" y2="119.6" stroke="white" stroke-opacity="0.2" stroke-width="0.8"/>
<line x1="-20" y1="69.6" x2="480" y2="69.6" stroke="white" stroke-opacity="0.2" stroke-width="0.8"/>
<line x1="-20" y1="19.6" x2="480" y2="19.6" stroke="white" stroke-opacity="0.2" stroke-width="0.8"/>
</svg>
