<?xml version="1.0" encoding="UTF-8"?>
<svg id="Layer_1" data-name="Layer 1" xmlns="http://www.w3.org/2000/svg" viewBox="0 0 178.3 158.1">
  <defs>
    <style>
      .cls-1 {
        fill: #e71e25;
      }
    </style>
  </defs>
  <g id="Group_87" data-name="Group 87">
    <g id="Group_83" data-name="Group 83">
      <path id="Path_79" data-name="Path 79" class="cls-1" d="M84.72,127.94c-6.72.06-13.4-1.16-19.67-3.58-14.19-5.57-24.29-17.3-27.83-32.74-.97-4.13-1.44-8.36-1.41-12.6,0-28.78,20.3-48.87,48.92-48.87,12.65,0,23.67,4.2,32.92,12.34,3.39,2.98,8.54,2.74,11.86-.32h0c9.97-9.22,7.84-25.4-4.05-31.97C113.39,3.53,98.99,0,82.98,0,35.35,0,0,32.98,0,79.03c-.02,4.46.33,8.91,1.04,13.31,4.99,32.07,28.16,55.86,59.98,63.31,7.13,1.66,14.43,2.48,21.76,2.45,16.68,0,31.56-3.77,43.89-10.94,11.3-6.57,12.6-22.47,3-31.34l-.09-.08c-3.33-3.08-8.53-3.3-11.91-.27-9.25,8.28-20.28,12.48-32.93,12.48h-.02Z"/>
    </g>
    <circle id="Ellipse_4" data-name="Ellipse 4" class="cls-1" cx="161.8" cy="28.64" r="16.5"/>
    <circle id="Ellipse_5" data-name="Ellipse 5" class="cls-1" cx="161.8" cy="129.46" r="16.5"/>
  </g>
</svg>