<?xml version="1.0" encoding="UTF-8"?>
<svg id="Layer_1" data-name="Layer 1" xmlns="http://www.w3.org/2000/svg" viewBox="0 0 844.71 337.69">
  <defs>
    <style>
      .cls-1, .cls-2, .cls-3 {
        isolation: isolate;
      }

      .cls-2 {
        font-size: 97px;
      }

      .cls-2, .cls-3 {
        font-family: Avenir-Black, Avenir;
        font-weight: 800;
      }

      .cls-3 {
        font-size: 171px;
      }

      .cls-4 {
        letter-spacing: 0em;
      }

      .cls-5 {
        letter-spacing: -.02em;
      }

      .cls-6 {
        letter-spacing: -.02em;
      }

      .cls-7 {
        fill: #ea0000;
      }
    </style>
  </defs>
  <g>
    <g id="hronexa" class="cls-1">
      <text class="cls-3" transform="translate(190.33 222.42)"><tspan x="0" y="0">h</tspan><tspan class="cls-6" x="98.15" y="0">r</tspan><tspan x="164.67" y="0">onexa</tspan></text>
    </g>
    <g id="Group_87" data-name="Group 87">
      <g id="Group_83" data-name="Group 83">
        <path id="Path_79" data-name="Path 79" class="cls-7" d="M180.98,273.28c-14.36.12-28.62-2.47-42.02-7.64-30.3-11.91-51.88-36.96-59.43-69.92-2.06-8.82-3.08-17.86-3.02-26.92,0-61.48,43.35-104.39,104.48-104.39,27.02,0,50.56,8.97,70.32,26.35,7.24,6.36,18.25,5.86,25.32-.68h0c21.3-19.7,16.75-54.25-8.64-68.29C242.21,7.54,211.44,0,177.24,0,75.52,0,0,70.45,0,168.8c-.04,9.52.71,19.03,2.22,28.43,10.66,68.5,60.15,119.32,128.11,135.22,15.23,3.54,30.83,5.3,46.47,5.24,35.62,0,67.4-8.05,93.74-23.37,24.13-14.04,26.91-47.99,6.41-66.94l-.19-.17c-7.12-6.59-18.22-7.05-25.45-.59-19.77,17.69-43.31,26.66-70.34,26.66Z"/>
      </g>
      <circle id="Ellipse_4" data-name="Ellipse 4" class="cls-7" cx="345.62" cy="61.18" r="35.24"/>
      <circle id="Ellipse_5" data-name="Ellipse 5" class="cls-7" cx="345.62" cy="276.53" r="35.24"/>
    </g>
  </g>
  <g id="hronexa-2" data-name="hronexa" class="cls-1">
    <text class="cls-2" transform="translate(460.42 311.77)"><tspan x="0" y="0">TimeP</tspan><tspan class="cls-5" x="282.07" y="0">r</tspan><tspan class="cls-4" x="319.81" y="0">o</tspan></text>
  </g>
</svg>