<svg width="25" height="25" viewBox="0 0 25 25" fill="none" xmlns="http://www.w3.org/2000/svg">
<g clip-path="url(#clip0_3725_10684)">
<path fill-rule="evenodd" clip-rule="evenodd" d="M15.9723 7.30331C14.9445 6.61656 13.7361 6.25 12.5 6.25V0C14.9722 0 17.389 0.733113 19.4446 2.10663C21.5002 3.48014 23.1024 5.43238 24.0485 7.71644C24.9946 10.0005 25.2421 12.5139 24.7598 14.9386C24.2775 17.3634 23.087 19.5907 21.3388 21.3388C19.5907 23.087 17.3634 24.2775 14.9386 24.7598C12.5139 25.2421 10.0005 24.9946 7.71644 24.0485C5.43238 23.1024 3.48014 21.5002 2.10663 19.4446C0.733113 17.389 0 14.9722 0 12.5H6.25C6.25 13.7361 6.61656 14.9445 7.30331 15.9723C7.99006 17.0001 8.96619 17.8012 10.1083 18.2743C11.2503 18.7473 12.5069 18.8711 13.7193 18.6299C14.9317 18.3888 16.0453 17.7935 16.9194 16.9194C17.7935 16.0453 18.3888 14.9317 18.6299 13.7193C18.8711 12.5069 18.7473 11.2503 18.2743 10.1083C17.8012 8.96619 17.0001 7.99006 15.9723 7.30331Z" fill="#0078D4"/>
<path fill-rule="evenodd" clip-rule="evenodd" d="M6.25 2.70703e-06C6.25 0.820765 6.08834 1.63349 5.77425 2.39177C5.46015 3.15006 4.99978 3.83905 4.41942 4.41942C3.83905 4.99979 3.15006 5.46016 2.39177 5.77425C1.63348 6.08834 0.820759 6.25 2.73194e-07 6.25L0 12.5C1.64152 12.5 3.26697 12.1767 4.78355 11.5485C6.30012 10.9203 7.67812 9.99957 8.83881 8.83881C9.99956 7.67813 10.9203 6.30013 11.5485 4.78355C12.1767 3.26697 12.5 1.64152 12.5 0L6.25 2.70703e-06Z" fill="#0078D4"/>
</g>
<defs>
<clipPath id="clip0_3725_10684">
<rect width="25" height="25" fill="white"/>
</clipPath>
</defs>
</svg>
