<svg width="24" height="25" viewBox="0 0 24 25" fill="none" xmlns="http://www.w3.org/2000/svg">
<g clip-path="url(#clip0_1599_4029)">
<path d="M0.266479 14.2764C0.509896 15.8831 1.07681 17.3831 1.89716 18.71H22.0762C22.8966 17.3831 23.4635 15.8831 23.7069 14.2764H0.266479Z" fill="#F3F4F5"/>
<path d="M18.4771 22.4048H5.49598C7.36085 23.6277 9.5898 24.3413 11.9866 24.3413C14.3833 24.3413 16.6123 23.6277 18.4771 22.4048Z" fill="#F3F4F5"/>
<path d="M1.89716 18.71C2.81182 20.1897 4.04313 21.4518 5.49598 22.4047H18.4771C19.9303 21.4518 21.1613 20.1897 22.076 18.71H1.89716Z" fill="#DC3027"/>
<path d="M13.206 0.694007C12.8051 0.652911 12.3983 0.631836 11.9866 0.631836C5.43934 0.631836 0.131866 5.93931 0.131866 12.4865C0.131866 13.0948 0.177968 13.6925 0.266483 14.2763H13.206V0.694007Z" fill="#283991"/>
<path d="M3.7378 6.71564L3.3711 5.5897L4.32606 4.89555H3.14507L3.07315 4.67505C2.69854 5.10208 2.35449 5.55598 2.04363 6.03386L1.82156 6.71564L2.77941 6.01937L3.7378 6.71564Z" fill="#F3F4F5"/>
<path d="M6.12323 3.17607L7.07687 3.86917L6.71122 2.7464L7.66513 2.04935H6.48414L6.46675 1.99561C6.09425 2.19213 5.73255 2.40604 5.38481 2.63945L5.53445 2.74825L5.17459 3.86917L6.12323 3.17607Z" fill="#F3F4F5"/>
<path d="M2.18931 11.2826L1.82313 12.4074L2.77941 11.712L3.73832 12.4074L3.37214 11.2826L4.32579 10.5871H3.14559L2.77941 9.46484L2.41323 10.5871H1.23303L2.18931 11.2826Z" fill="#F3F4F5"/>
<path d="M8.88062 11.2826L8.51445 12.4074L9.47073 11.712L10.4296 12.4074L10.0635 11.2826L11.0171 10.5871H9.8369L9.47073 9.46484L9.10718 10.5871H7.92435L8.88062 11.2826Z" fill="#F3F4F5"/>
<path d="M8.88062 5.58974L8.51445 6.71462L9.47073 6.01915L10.4296 6.71462L10.0635 5.58974L11.0171 4.89427H9.8369L9.47073 3.77466L9.10718 4.89427H7.92435L8.88062 5.58974Z" fill="#F3F4F5"/>
<path d="M5.52707 8.43496L5.16089 9.56247L6.1198 8.867L7.07608 9.56247L6.7099 8.43496L7.66618 7.74212H6.48335L6.1198 6.61987L5.75363 7.74212H4.57343L5.52707 8.43496Z" fill="#F3F4F5"/>
<path d="M23.6869 10.5813H13.206V14.276H23.7066C23.7951 13.6925 23.8412 13.0948 23.8412 12.4865C23.8412 11.8376 23.787 11.202 23.6869 10.5813Z" fill="#DC3027"/>
<path d="M13.206 10.5814H23.6869C23.4266 8.97149 22.8415 7.47122 22.0022 6.14771H13.206V10.5814Z" fill="#F3F4F5"/>
<path d="M13.206 6.14759H22.0019C21.057 4.65759 19.7898 3.39362 18.2969 2.45288H13.206V6.14759Z" fill="#DC3027"/>
<path d="M13.206 0.695068V2.45299H18.2972C16.7938 1.5054 15.0638 0.885534 13.206 0.695068Z" fill="#F3F4F5"/>
</g>
<defs>
<clipPath id="clip0_1599_4029">
<rect width="24" height="24" fill="white" transform="translate(0 0.5)"/>
</clipPath>
</defs>
</svg>
